# xmcd
#
# Track frame offsets: 
#        150
#        19206
#        35198
#        50930
#        68905
#        83581
#        102851
#        120970
#        139568
#        160600
#        179241
#        192989
#        211021
#        234240
#        251068
#        266503
#        281846
#
# Disc length: 3881 seconds
#
# Revision: 0
# Processed by: cddbd v1.5.2PL0 Copyright (c) Steve Scherf et al.
# Submitted via: ExactAudioCopyFreeDBPlugin 1.0
#
DISCID=f30f2711
DTITLE=Various Artist - CMAA Independents' Day CD 1
DYEAR=2010
DGENRE=Country
TTITLE0=Felicity Urquhart - Girl In The Mall
TTITLE1=Markus Meier - Rope A Cowgirl
TTITLE2=Dianna Corcoran - Keep Breathing
TTITLE3=Carter and Carter - Ride
TTITLE4=Amber Lawrence - Women Like Me (Don't Like Girls Like You)
TTITLE5=Jonah's Road - End Of The World
TTITLE6=Jason Lee - A Memory
TTITLE7=WildSeed - If I Only Had Time
TTITLE8=Jacqui Ryan - Cry
TTITLE9=Col Finley - Paradise
TTITLE10=Steve Passfield - Old Friends
TTITLE11=Tori Darke - Not My Time To Fly
TTITLE12=David Agius - Growing Up
TTITLE13=Chris E Thomas and The Free Range - One For The Roadie
TTITLE14=Sarah McMonagle - Tea on Tuesday
TTITLE15=Chelsea Basham - Truth About Me
TTITLE16=Greg Storer - Lazy River
EXTD=
EXTT0=
EXTT1=
EXTT2=
EXTT3=
EXTT4=
EXTT5=
EXTT6=
EXTT7=
EXTT8=
EXTT9=
EXTT10=
EXTT11=
EXTT12=
EXTT13=
EXTT14=
EXTT15=
EXTT16=
PLAYORDER=
